<?xml version="1.0" encoding="UTF-8" standalone="no"?>
<!-- Created with Inkscape (http://www.inkscape.org/) -->

<svg
   width="173.43814mm"
   height="70.933151mm"
   viewBox="0 0 173.43814 70.933151"
   version="1.1"
   id="svg5"
   xml:space="preserve"
   inkscape:export-filename="bitmap.svg"
   inkscape:export-xdpi="96"
   inkscape:export-ydpi="96"
   xmlns:inkscape="http://www.inkscape.org/namespaces/inkscape"
   xmlns:sodipodi="http://sodipodi.sourceforge.net/DTD/sodipodi-0.dtd"
   xmlns="http://www.w3.org/2000/svg"
   xmlns:svg="http://www.w3.org/2000/svg"><sodipodi:namedview
     id="namedview7"
     pagecolor="#ffffff"
     bordercolor="#000000"
     borderopacity="0.25"
     inkscape:showpageshadow="2"
     inkscape:pageopacity="0.0"
     inkscape:pagecheckerboard="0"
     inkscape:deskcolor="#d1d1d1"
     inkscape:document-units="mm"
     showgrid="false"
     showguides="true" /><defs
     id="defs2"><inkscape:path-effect
       effect="simplify"
       id="path-effect1874"
       is_visible="true"
       lpeversion="1"
       steps="16"
       threshold="0.0188"
       smooth_angles="0"
       helper_size="5"
       simplify_individual_paths="false"
       simplify_just_coalesce="false" /></defs><g
     inkscape:label="Layer 1"
     inkscape:groupmode="layer"
     id="layer1"
     transform="translate(-31.76846,-160.53706)"><g
       fill-opacity="0"
       fill="#000000"
       fill-rule="nonzero"
       stroke="none"
       stroke-width="none"
       stroke-linecap="round"
       stroke-linejoin="round"
       stroke-miterlimit="10"
       stroke-dasharray="none"
       stroke-dashoffset="0"
       font-family="none"
       font-weight="none"
       font-size="none"
       text-anchor="none"
       style="mix-blend-mode:normal"
       id="g209"
       transform="matrix(0.1671395,0,0,0.16097682,5.1958574,111.49015)"><path
         d="m 240.43718,454.19811 c 0.8206,-11.61083 1.38405,-16.69745 1.42454,-28.18473 0.0163,-4.61307 -0.0769,-9.22822 -0.29541,-13.83615 -1.07369,-22.64317 -5.82166,-70.7458 -35.13377,-75.86883 -18.16431,-3.17467 -48.01211,10.5733 -31.19885,31.88472 15.55961,19.72239 46.74427,15.98907 67.01701,7.14198 30.11228,-13.1411 51.64286,-40.21779 82.55262,-52.23149 13.8215,-5.37201 31.77549,-9.02523 45.86922,-2.31872 36.7581,17.49134 8.89062,64.55534 -10.48193,83.48963 -4.51594,4.41378 -9.35931,8.32373 -14.31708,12.20404 -1.24547,0.9748 -4.55829,1.47257 -3.79014,2.85457 2.16414,3.89355 6.38319,6.33365 10.18729,8.65467 15.94489,9.72851 35.00433,13.87423 52.57368,19.51138 34.87381,11.18932 77.43714,29.04569 84.03083,70.15043 0.98858,6.16276 1.30757,12.50077 0.68984,18.7116 -2.28232,22.94693 -13.64036,43.45859 -27.59384,61.3065 -36.6096,46.82733 -100.73961,78.23798 -160.71345,73.63412 -44.94958,-3.45053 -94.52914,-33.16808 -111.91257,-76.33536 -6.14516,-15.25991 -5.04475,-18.40822 -6.32901,-35.05641 0.8661,-6.32102 1.12826,-12.75446 2.59829,-18.96304 4.85474,-20.50367 16.2217,-39.38148 31.49755,-53.78307 18.29745,-17.25027 49.22892,-32.02483 72.70973,-15.24914 4.22849,3.02101 8.13502,6.61802 11.30092,10.73769 3.70193,4.81718 6.73371,10.19683 9.08956,15.79567 8.38591,19.92975 8.97653,42.28587 8.41,63.51047 -0.62948,23.58214 -3.57303,47.07982 -5.61704,70.55948 -4.50697,51.77185 -4.08169,49.56546 -3.15859,101.49795"
         id="Path 1"
         stroke="#000000"
         stroke-width="22.6179"
         sodipodi:nodetypes="cssssssssssssssssscsssssssc" /><path
         d="m 995.78018,319.68296 c -7.91652,63.32656 -13.43119,125.88575 -30.24156,187.73107 -3.82448,14.07024 -7.9819,28.09679 -13.80938,41.4864 -1.40061,3.21814 -4.18812,12.9466 -7.30667,14.54179 -2.12358,1.08625 -8.9688,-2.50014 -9.88702,-3.12224 -11.33857,-7.682 -17.84147,-20.45748 -22.3745,-32.94464 -13.9459,-38.41685 -18.29353,-79.84973 -30.2514,-118.91971 -2.89426,-9.45642 -5.99316,-18.85196 -9.20855,-28.2038 -1.11031,-3.22928 -0.0139,-9.15983 -3.3908,-9.66704 -1.82741,-0.27447 -2.94062,2.27169 -4.17654,3.64547 -6.79526,7.55327 -11.25236,16.73902 -14.9731,26.09717 -11.08758,27.88668 -17.82153,57.69279 -26.91426,86.27968 -25.43196,79.95626 -57.23042,149.71161 -133.38491,194.10554 -30.85117,14.15624 -66.06457,24.32888 -97.89289,5.98959 -6.23911,-3.59494 -12.09296,-7.98028 -17.24225,-13.01365 -11.75186,-11.48729 -13.70015,-17.69863 -20.59399,-31.29602"
         id="path197"
         stroke="#000000"
         stroke-width="30" /><path
         d="m 1097.9611,334.22902 c -11.7295,2.02716 -23.1589,5.30499 -33.2882,11.74005 -39.7563,25.2566 -46.7045,78.02479 -40.5107,121.0424 2.0978,14.56954 5.5238,28.57273 12.4204,41.67923 18.6483,35.4397 58.1434,64.87354 98.4543,44.83513 44.4884,-26.48419 55.338,-89.5845 40.0798,-136.03062 -8.3869,-25.52971 -32.493,-51.22873 -61.2371,-50.37846 -47.5803,1.40744 -61.8195,82.68194 -17.6263,99.80697"
         id="path199"
         stroke="#000000"
         stroke-width="30" /><path
         d="M 581.32665,624.53206 C 753.4352,730.05717 783.67354,460.94657 833.9347,362.94645"
         id="path201"
         stroke="#00c8ff"
         stroke-width="20"
         sodipodi:nodetypes="cssssssssssc"
         style="stroke-width:16.1548;stroke-dasharray:none"
         inkscape:path-effect="#path-effect1874"
         inkscape:original-d="m 581.32665,624.53206 c 9.42132,12.043 12.94931,16.84112 20.02571,22.47854 8.98586,7.15859 15.66135,10.90588 23.8668,11.98252 4.06506,0.53338 8.37478,0.60192 13.87471,-0.15215 4.95152,-0.67888 9.15755,-1.28809 12.79974,-1.87171 9.9869,-1.60031 15.73454,-3.00833 20.98802,-5.13334 0.49116,-0.19867 0.97801,-0.40361 1.46359,-0.61556 4.60518,-2.01009 9.09712,-4.65068 16.08643,-8.55562 4.1826,-2.33682 8.30677,-5.38488 12.0595,-8.55258 3.52245,-2.97333 6.71764,-6.05206 9.32669,-8.74698 26.99251,-27.88083 40.27486,-48.23413 54.69976,-78.85916 13.48448,-28.62848 43.42158,-143.07668 67.4171,-183.55957" /><path
         d="m 475.05092,645.18377 c 7.39425,-6.58958 20.37935,-20.86691 25.29091,-29.34703 5.16252,-8.91341 10.85099,-22.28739 15.50935,-32.75882 10.33344,-23.22835 13.69138,-47.93309 9.2418,-72.24967 -1.9773,-10.80583 -4.85682,-21.94806 -10.96845,-31.5741 -1.45748,-2.29557 -5.92694,-8.4586 -9.33755,-8.93008 -1.83148,-0.25317 2.06499,2.77864 3.49463,3.8209 3.50284,2.55371 8.90878,5.28625 13.38766,6.78154 11.56439,3.86079 24.3692,3.67913 36.42048,2.09004 34.5009,-4.54933 67.43844,-22.18566 89.49007,-45.7717 5.86936,-6.27777 10.93922,-13.23796 14.58663,-20.72731 0.96816,-1.988 4.23828,-4.5889 2.49271,-6.10763 -1.68392,-1.46508 -13.06237,4.9506 -13.70576,5.4876 -7.77243,6.48706 -15.17651,15.40285 -19.34379,24.29602 -18.50055,39.48098 -12.65997,83.96261 -2.98838,124.57638"
         id="path203"
         stroke="#000000"
         stroke-width="28.4199"
         sodipodi:nodetypes="csssssssssssssc" /><path
         d="m 655.87161,548.43233 c 9.41413,14.6996 18.81301,29.40875 28.22567,44.10918"
         id="path205"
         stroke="#00c8ff"
         stroke-width="17" /><path
         d="m 685.66702,528.48259 c 9.61857,15.20178 18.8261,30.55882 27.42821,46.35913"
         id="path207"
         stroke="#00c8ff"
         stroke-width="17" /></g></g></svg>
