<?xml version="1.0" encoding="UTF-8" standalone="no"?>
<svg
   version="1.1"
   width="700"
   height="700"
   viewBox="308.5,25.5,700,700"
   id="svg77"
   sodipodi:docname="my_watermark.svg"
   inkscape:version="1.2.2 (b0a8486541, 2022-12-01)"
   xmlns:inkscape="http://www.inkscape.org/namespaces/inkscape"
   xmlns:sodipodi="http://sodipodi.sourceforge.net/DTD/sodipodi-0.dtd"
   xmlns="http://www.w3.org/2000/svg"
   xmlns:svg="http://www.w3.org/2000/svg">
  <defs
     id="defs81" />
  <sodipodi:namedview
     id="namedview79"
     pagecolor="#ffffff"
     bordercolor="#000000"
     borderopacity="0.25"
     inkscape:showpageshadow="2"
     inkscape:pageopacity="0.0"
     inkscape:pagecheckerboard="0"
     inkscape:deskcolor="#d1d1d1"
     showgrid="false"
     inkscape:zoom="0.89428571"
     inkscape:cx="353.35463"
     inkscape:cy="334.34505"
     inkscape:window-width="1536"
     inkscape:window-height="835"
     inkscape:window-x="0"
     inkscape:window-y="0"
     inkscape:window-maximized="1"
     inkscape:current-layer="svg77" />
  <g
     fill="none"
     fill-rule="nonzero"
     stroke="#000000"
     stroke-width="none"
     stroke-linecap="round"
     stroke-linejoin="round"
     stroke-miterlimit="10"
     stroke-dasharray="none"
     stroke-dashoffset="0"
     font-family="none"
     font-weight="none"
     font-size="none"
     text-anchor="none"
     style="mix-blend-mode:normal"
     id="g75"
     transform="matrix(4.1823191,0,0,4.2769458,-1346.9733,-710.93356)">
    <g
       id="stage">
      <g
         id="layer1 1">
        <path
           d=""
           id="Path 1"
           fill="none"
           stroke-width="1" />
        <path
           d="m 439.38537,234.99228 c 8.18419,-4.86023 20.82924,-5.8826 23.45615,5.8466 1.11317,4.97031 -1.17006,9.94326 -4.89507,13.1777 -1.23157,1.06937 -2.6424,1.94138 -4.11401,2.63941 -0.52237,0.24778 -0.91434,0.41639 -1.45045,0.63604 -0.39143,0.16037 -1.60332,0.39685 -1.18441,0.45559 2.10635,0.29535 4.47333,-0.42713 6.67675,-0.16045 6.6831,0.80885 12.16747,5.67972 13.6021,12.24959 1.78854,10.54867 -6.43202,20.73252 -17.19039,20.93071 -10.15252,0.18703 -20.42858,-8.12839 -21.81704,-18.29711 -0.95773,-7.01417 2.12422,-14.29157 5.37928,-20.33716 8.27795,-14.8909 22.6397,-26.98059 34.45188,-39.05054"
           id="path65"
           fill-opacity="0"
           fill="#000000"
           stroke-width="6" />
        <path
           d="m 487.14072,221.35019 c 6.22862,16.04824 6.59142,33.8041 3.25505,50.57158 -1.24352,6.24953 -3.13379,14.35709 -7.97932,18.84879"
           id="path67"
           fill-opacity="0"
           fill="#000000"
           stroke-width="6" />
        <path
           d="m 478.93537,249.35268 c 1.47283,-12.80867 12.1979,-11.44601 22.18631,-13.04887 11.13771,-1.78729 22.24793,-6.94859 26.27449,-18.1701"
           id="path69"
           fill-opacity="0"
           fill="#000000"
           stroke-width="6" />
        <path
           d="m 494.50559,253.97602 c 4.50372,-1.87788 9.36375,-1.37378 14.01512,-2.6318"
           id="path71"
           fill-opacity="0"
           fill="#000000"
           stroke-width="6" />
      </g>
    </g>
  </g>
</svg>
