<svg version="1.1" xmlns="http://www.w3.org/2000/svg" xmlns:xlink="http://www.w3.org/1999/xlink" width="3179" height="2245" viewBox="-931,-747,3179,2245"><g id="document" fill="#ffffff" fill-rule="nonzero" stroke="#000000" stroke-width="0" stroke-linecap="butt" stroke-linejoin="miter" stroke-miterlimit="10" stroke-dasharray="" stroke-dashoffset="0" font-family="none" font-weight="none" font-size="none" text-anchor="none" style="mix-blend-mode: normal"><rect x="-205.00157" y="-166.36971" transform="scale(4.54143,4.49)" width="700" height="500" id="Shape 1 1" vector-effect="non-scaling-stroke"/></g><g fill-opacity="0" fill="#000000" fill-rule="nonzero" stroke="none" stroke-width="none" stroke-linecap="round" stroke-linejoin="round" stroke-miterlimit="10" stroke-dasharray="" stroke-dashoffset="0" font-family="none" font-weight="none" font-size="none" text-anchor="none" style="mix-blend-mode: normal"><g id="stage"><g id="layer1 1"><path d="M84.9873,205.92737c1.11022,-15.09794 1.87254,-21.71223 1.92733,-36.64952c0.022,-5.99852 -0.10406,-11.99975 -0.39968,-17.99159c-1.45265,-29.44365 -7.87641,-91.99307 -47.53424,-98.65471c-24.57541,-4.12813 -64.95799,13.7488 -42.21049,41.46074c21.05138,25.64566 63.24267,20.7911 90.67067,9.28694c40.74042,-17.0878 69.87022,-52.29649 111.68958,-67.9183c18.6998,-6.9854 42.99066,-11.7358 62.05877,-3.01511c49.73188,22.74456 12.02856,83.94341 -14.18153,108.56428c-6.10984,5.73938 -12.66268,10.82362 -19.37029,15.86931c-1.68507,1.26757 -6.16715,1.91483 -5.12788,3.71189c2.92798,5.06292 8.63614,8.23586 13.7829,11.25395c21.57264,12.6503 47.35911,18.04111 71.12957,25.37128c47.18253,14.54984 104.76859,37.76906 113.68953,91.21889c1.3375,8.01364 1.76907,16.25516 0.93331,24.3313c-3.08786,29.83864 -18.45473,56.51062 -37.33309,79.71883c-49.53096,60.89111 -136.29567,101.73539 -217.43729,95.74884c-60.81454,-4.48683 -127.89321,-43.12953 -151.41212,-99.26134c-8.31409,-19.84296 -6.82529,-23.93681 -8.56283,-45.585c1.17178,-8.21942 1.52647,-16.58503 3.51535,-24.65825c6.56822,-26.66159 21.94716,-51.20902 42.61462,-69.93588c24.75553,-22.43108 66.60427,-41.64292 98.37263,-19.82895c5.72094,3.92832 11.00628,8.60563 15.28959,13.96257c5.00852,6.26393 9.11037,13.25927 12.29771,20.53962c11.34573,25.9153 12.14481,54.9857 11.37831,82.58473c-0.85165,30.66463 -4.83412,61.21942 -7.59957,91.75078c-6.0977,67.32062 -7.71918,134.60357 -6.47026,202.13308" id="Path 1" stroke="#000000" stroke-width="30"/><path d="M995.78018,79.12709c-7.91652,63.32656 -13.43119,125.88575 -30.24156,187.73107c-3.82448,14.07024 -7.9819,28.09679 -13.80938,41.4864c-1.40061,3.21814 -4.18812,12.9466 -7.30667,14.54179c-2.12358,1.08625 -8.9688,-2.50014 -9.88702,-3.12224c-11.33857,-7.682 -17.84147,-20.45748 -22.3745,-32.94464c-13.9459,-38.41685 -18.29353,-79.84973 -30.2514,-118.91971c-2.89426,-9.45642 -5.99316,-18.85196 -9.20855,-28.2038c-1.11031,-3.22928 -0.01385,-9.15983 -3.3908,-9.66704c-1.82741,-0.27447 -2.94062,2.27169 -4.17654,3.64547c-6.79526,7.55327 -11.25236,16.73902 -14.9731,26.09717c-11.08758,27.88668 -17.82153,57.69279 -26.91426,86.27968c-25.43196,79.95626 -57.23042,149.71161 -133.38491,194.10554c-30.85117,14.15624 -66.06457,24.32888 -97.89289,5.98959c-6.23911,-3.59494 -12.09296,-7.98028 -17.24225,-13.01365c-11.75186,-11.48729 -13.70015,-17.69863 -20.59399,-31.29602" id="Path 1" stroke="#000000" stroke-width="30"/><path d="M1616.20424,16.20601" id="Path 1" stroke="#000000" stroke-width="35"/><path d="M1100.42257,79.12709c-11.72946,2.02716 -23.15883,5.30499 -33.2882,11.74005c-39.75623,25.2566 -46.70449,78.02479 -40.51065,121.0424c2.09778,14.56954 5.5238,28.57273 12.42041,41.67923c18.64829,35.4397 58.14338,64.87354 98.45429,44.83513c44.48842,-26.48419 55.33795,-89.5845 40.07975,-136.03062c-8.38686,-25.52971 -32.49297,-51.22873 -61.23712,-50.37846c-47.58024,1.40744 -61.81945,82.68194 -17.62626,99.80697" id="Path 1" stroke="#000000" stroke-width="30"/><path d="M467.40032,382.44703c7.66496,-16.06401 15.78384,-31.42493 26.20883,-44.01214c23.36559,-28.21178 52.7503,-26.96397 78.69409,-8.66027c34.72658,24.50007 64.81699,68.28151 106.93763,58.00815c6.11979,-1.49264 12.19326,-4.03104 17.91621,-7.59769c26.47889,-16.50215 40.27244,-53.83681 49.50037,-91.24741c14.56329,-59.04049 20.69771,-131.0009 57.82078,-171.11763" id="Path 1" stroke="#00c8ff" stroke-width="20"/><path d="M424.05642,351.98463c7.87404,-6.55724 16.86709,-13.19099 23.47336,-21.14228c7.96747,-9.58963 15.49969,-19.62601 20.95223,-30.88512c12.22632,-25.24644 13.5823,-53.83998 9.16818,-81.15316c-1.96155,-12.13745 -4.81813,-24.65276 -10.88107,-35.46502c-1.44587,-2.57847 -5.87973,-9.50099 -9.26315,-10.03056c-1.81689,-0.28438 2.04853,3.12105 3.46678,4.29176c3.47492,2.86841 8.8378,5.93767 13.281,7.61723c11.47225,4.33657 24.17505,4.13252 36.13032,2.3476c34.22603,-5.10995 66.90116,-24.91964 88.77711,-51.41224c5.82259,-7.05138 10.85208,-14.8693 14.47041,-23.28158c0.96046,-2.23299 4.20452,-5.15439 2.47286,-6.86028c-1.6705,-1.64563 -12.9583,5.56067 -13.59657,6.16384c-7.7105,7.28648 -15.05559,17.30097 -19.18968,27.29007c-18.35316,44.34631 -12.5591,94.30951 -2.96458,139.92819" id="Path 1" stroke="#000000" stroke-width="30"/><path d="M625.19035,256.92763c9.41413,14.6996 18.81301,29.40875 28.22567,44.10918" id="Path 1" stroke="#00c8ff" stroke-width="17"/><path d="M653.41602,233.74807c9.61857,15.20178 18.8261,30.55882 27.42821,46.35913" id="Path 1" stroke="#00c8ff" stroke-width="17"/></g></g></g></svg>